<?xml version="1.0" standalone="no"?>
<!DOCTYPE svg PUBLIC "-//W3C//DTD SVG 20010904//EN"
 "http://www.w3.org/TR/2001/REC-SVG-20010904/DTD/svg10.dtd">
<svg version="1.0" xmlns="http://www.w3.org/2000/svg"
 width="210.000000pt" height="210.000000pt" viewBox="0 0 210.000000 210.000000"
 preserveAspectRatio="xMidYMid meet">
<metadata>
Created by potrace 1.11, written by Peter Selinger 2001-2013
</metadata>
<g transform="translate(0.000000,210.000000) scale(0.100000,-0.100000)"
fill="#000000" stroke="none">
<path d="M1000 2068 c-43 -19 -159 -67 -350 -145 -47 -19 -98 -41 -115 -48
-16 -7 -72 -30 -124 -52 -71 -29 -95 -44 -103 -63 -5 -14 -15 -38 -23 -55 -7
-16 -50 -118 -95 -225 -44 -107 -87 -208 -95 -225 -7 -16 -30 -69 -50 -116
-32 -76 -35 -89 -24 -115 7 -16 13 -31 14 -34 1 -3 9 -23 19 -45 9 -22 72
-173 139 -335 l123 -294 60 -23 c57 -23 78 -32 127 -53 12 -5 140 -59 285
-119 l263 -109 47 18 c63 24 204 82 272 112 30 14 57 25 60 25 3 1 16 6 30 12
14 6 94 39 178 74 l153 62 75 180 c41 99 83 199 94 222 11 24 20 45 20 48 0 3
27 69 61 147 49 117 58 146 49 163 -6 11 -75 175 -154 364 -129 308 -147 345
-172 356 -171 73 -706 295 -712 294 -4 0 -27 -9 -52 -21z m32 -125 c0 -43 -1
-115 -1 -160 l-1 -83 -45 -11 c-29 -7 -61 -27 -92 -55 -26 -24 -52 -44 -57
-44 -13 0 -415 166 -424 174 -8 9 -30 -1 378 166 69 28 150 62 180 75 30 13
56 22 58 20 2 -2 4 -39 4 -82z m515 -106 c84 -34 153 -65 153 -68 0 -4 -98
-47 -217 -96 l-217 -90 -47 47 c-33 33 -61 51 -93 59 -37 9 -46 16 -47 34 0
33 0 259 0 284 1 21 9 18 159 -43 86 -36 226 -93 309 -127z m-947 -205 l215
-88 1 -49 c1 -54 -8 -74 -34 -74 -9 1 -53 -9 -97 -21 -111 -31 -107 -30 -136
-3 -24 22 -43 30 -76 32 -7 1 -12 4 -11 9 1 4 -17 66 -40 139 -41 127 -45 143
-39 143 1 0 99 -40 217 -88z m1109 36 c-34 -87 -71 -182 -73 -193 -2 -5 -7
-21 -13 -35 -6 -14 -16 -42 -24 -62 -12 -34 -25 -44 -53 -39 -18 3 -74 -21
-90 -38 -17 -18 -20 -18 -93 23 l-76 42 -1 90 c-1 54 3 91 9 91 11 1 305 122
370 153 63 30 67 27 44 -32z m85 0 c8 -18 26 -62 41 -98 15 -36 35 -85 46
-110 10 -25 41 -101 70 -170 28 -69 57 -138 65 -154 8 -16 14 -31 14 -34 0 -7
-65 7 -160 33 -47 13 -104 28 -126 34 -38 10 -42 14 -48 51 -3 22 -19 54 -35
73 l-30 33 72 187 c39 103 72 187 74 187 1 0 9 -15 17 -32z m-1415 -106 c23
-70 41 -133 41 -140 0 -7 -9 -22 -20 -34 -11 -12 -21 -31 -21 -42 -1 -12 -2
-30 -3 -40 -1 -14 -43 -47 -140 -109 -76 -48 -140 -87 -142 -84 -3 3 58 157
96 242 20 46 108 263 121 298 7 20 16 37 20 37 4 0 26 -58 48 -128z m471 -217
c12 -19 37 -48 56 -63 l35 -29 -37 -89 c-20 -49 -46 -111 -59 -139 -12 -27
-24 -57 -27 -65 -3 -11 -21 -15 -65 -17 l-61 -1 -57 116 c-88 179 -88 178 -69
207 8 13 17 32 18 41 3 17 26 28 86 39 14 2 45 11 70 19 72 22 86 20 110 -19z
m558 -148 c1 -28 8 -58 16 -70 48 -67 48 -54 -4 -164 -37 -79 -54 -103 -68
-103 -16 0 -35 37 -101 196 l-81 196 42 38 43 38 77 -41 76 -42 0 -48z m-923
19 c11 5 28 -10 31 -26 0 -3 30 -65 66 -139 l65 -135 -33 -33 -33 -33 -148 61
c-82 33 -190 77 -240 97 -51 20 -92 40 -90 45 1 4 69 50 150 101 l147 94 36
-19 c20 -10 42 -15 49 -13z m602 15 c20 4 36 2 41 -5 5 -6 33 -69 62 -141 29
-71 60 -148 70 -170 26 -57 26 -66 4 -102 l-19 -33 -151 0 -151 0 -12 39 c-6
21 -26 54 -45 72 l-34 34 62 145 c33 80 64 150 68 157 5 7 20 8 40 4 18 -4 48
-4 65 0z m728 -131 c214 -54 208 -44 54 -107 -74 -30 -147 -61 -164 -68 -183
-79 -259 -107 -272 -99 -19 12 -20 7 34 124 45 98 47 100 80 100 46 0 97 23
119 54 11 14 21 25 24 26 3 0 59 -14 125 -30z m-1623 -138 c51 -21 156 -65
234 -97 l141 -59 -2 -46 c-2 -29 5 -61 16 -85 22 -45 32 -30 -120 -182 -63
-63 -118 -110 -122 -106 -4 4 -53 121 -109 258 -56 138 -113 274 -126 303 -12
28 -19 52 -14 52 4 0 50 -17 102 -38z m1825 26 c-35 -90 -238 -582 -245 -593
-7 -13 -40 14 -170 143 -157 157 -161 161 -152 191 5 17 9 34 9 38 0 3 26 17
58 30 32 13 72 30 88 38 17 7 64 27 105 43 41 17 93 38 115 47 22 10 41 17 42
17 2 -1 31 12 65 28 69 32 93 37 85 18z m-760 -278 c9 -14 21 -28 25 -31 8 -5
0 -38 -22 -84 -5 -11 -51 -123 -103 -248 -52 -125 -98 -228 -103 -228 -4 0
-41 80 -82 178 -93 225 -89 217 -91 226 0 4 -7 20 -15 36 -14 27 -14 29 19 61
19 19 40 50 46 69 6 20 13 38 15 41 1 3 68 5 148 5 144 0 146 -1 163 -25z
m317 -209 l158 -158 -78 -33 c-358 -150 -544 -224 -548 -218 -3 3 151 380 193
473 10 22 21 50 25 62 6 20 21 26 76 32 8 0 87 -70 174 -158z m-911 87 c12 -6
51 -14 85 -17 l64 -6 78 -190 c43 -104 83 -201 89 -215 19 -45 31 -80 27 -80
-1 0 -16 6 -32 14 -28 14 -512 214 -570 236 l-28 11 129 129 c72 72 131 130
133 130 2 0 13 -5 25 -12z"/>
</g>
</svg>
