<svg width="1440" height="266" viewBox="0 0 1440 266" fill="none" xmlns="http://www.w3.org/2000/svg">
<path fill-rule="evenodd" clip-rule="evenodd" d="M0 8.38503L27.1517 29.7757C54.3033 51.1664 109.841 93.9478 164.144 129.599C219.682 165.25 273.985 193.771 329.522 208.031C383.826 222.292 439.363 222.292 493.667 165.25C547.97 108.208 603.508 -5.87542 657.811 1.2548C713.348 8.38503 767.652 136.729 823.189 158.12C877.492 179.511 933.03 93.9478 987.333 51.1664C1041.64 8.38503 1097.17 8.38503 1151.48 36.9059C1207.02 65.4269 1261.32 122.469 1316.86 165.25C1371.16 208.031 1426.7 236.552 1453.85 250.813L1481 265.073H1453.85C1426.7 265.073 1371.16 265.073 1316.86 265.073C1261.32 265.073 1207.02 265.073 1151.48 265.073C1097.17 265.073 1041.64 265.073 987.333 265.073C933.03 265.073 877.492 265.073 823.189 265.073C767.652 265.073 713.348 265.073 657.811 265.073C603.508 265.073 547.97 265.073 493.667 265.073C439.363 265.073 383.826 265.073 329.522 265.073C273.985 265.073 219.682 265.073 164.144 265.073C109.841 265.073 54.3033 265.073 27.1517 265.073H0V8.38503Z" fill="#1F3D81" fill-opacity="0.5"/>
</svg>
