<svg width="1440" height="302" viewBox="0 0 1440 302" fill="none" xmlns="http://www.w3.org/2000/svg">
<path fill-rule="evenodd" clip-rule="evenodd" d="M0 140.252H20.4C39.6 140.252 80.4 140.252 120 134.886C159.6 129.52 200.4 118.789 240 124.155C279.6 129.52 320.4 150.983 360 183.176C399.6 215.37 440.4 258.295 480 258.295C519.6 258.295 560.4 215.37 600 215.37C639.6 215.37 680.4 258.295 720 247.564C759.6 236.832 800.4 172.445 840 129.52C879.6 86.5955 920.4 65.1331 960 91.9611C999.6 118.789 1040.4 193.908 1080 188.542C1119.6 183.176 1160.4 97.3267 1200 49.0363C1239.6 0.745827 1280.4 -9.98538 1320 11.477C1359.6 32.9394 1400.4 86.5955 1419.6 113.423L1440 140.252V301.22H1419.6C1400.4 301.22 1359.6 301.22 1320 301.22C1280.4 301.22 1239.6 301.22 1200 301.22C1160.4 301.22 1119.6 301.22 1080 301.22C1040.4 301.22 999.6 301.22 960 301.22C920.4 301.22 879.6 301.22 840 301.22C800.4 301.22 759.6 301.22 720 301.22C680.4 301.22 639.6 301.22 600 301.22C560.4 301.22 519.6 301.22 480 301.22C440.4 301.22 399.6 301.22 360 301.22C320.4 301.22 279.6 301.22 240 301.22C200.4 301.22 159.6 301.22 120 301.22C80.4 301.22 39.6 301.22 20.4 301.22H0V140.252Z" fill="#1F3D81" fill-opacity="0.5"/>
</svg>
